{"title":"Four Faces West 1948.avi","uid":5879324,"size":780095126,"categoryP":"video","categoryS":"movies","magnet":"?xt=urn:btih:8fe088c44033c3ea074f0af4db03e64b2d639972&amp;dn=Four+Faces+West+1948.avi&amp;tr=udp%3A%2F%2Ftracker.openbittorrent.com%3A80&amp;tr=udp%3A%2F%2Fopen.demonii.com%3A1337&amp;tr=udp%3A%2F%2Ftracker.coppersurfer.tk%3A6969&amp;tr=udp%3A%2F%2Fexodus.desync.com%3A6969","seeders":0,"leechers":9,"uploader":"Jonzo666","files":1,"time":1286777868,"description":"Cowboy Ross McEwen arrives in town. He asks the banker for a loan of $2000. When the banker asks about securing a loan that large, McEwen shows him his six-gun collateral. The banker hands over the money in exchange for an I.O.U., signed &quot;Jefferson Davis&quot;. McEwen rides out of town and catches a train, but not before being bitten by a rattler. On the train, a nurse, Miss Hollister, tends to his wound. A posse searches the train, but McEwen manages to escape notice. However a mysterious Mexican has taken note of the cowboy, and that loudmouthed brat is still nosing around. Who will be the first to claim the reward for the robber's capture?\n\nJoel McCrea\t\tRoss McEwen\nFrances Dee\t\tFay Hollister\nCharles Bickford\tPat Garrett\nWilliam Conrad\t\tSheriff Egan\n\n   Video #0\n      ID : 0\n      Format : MPEG-4 Visual\n      Format profile : Simple@L3\n      Format settings, BVOP : No\n      Format settings, QPel : No\n      Format settings, GMC : No warppoints\n      Format settings, Matrix : Default (H.263)\n      Codec ID : XVID\n      Codec ID/Hint : XviD\n      Duration : 1h 30mn\n      Bit rate : 1 024 Kbps\n      Width : 720 pixels\n      Height : 480 pixels\n      Display aspect ratio : 1.500\n      Frame rate : 30.000 fps\n      Standard : NTSC\n      Resolution : 24 bits\n      Colorimetry : 4:2:0\n      Scan type : Progressive\n      Bits/(Pixel*Frame) : 0.099\n      Stream size : 659 MiB (89%)\n      Writing library : XviD 1.2.1 (UTC 2008-12-04)\n   Audio #1\n      ID : 1\n      Format : MPEG Audio\n      Format version : Version 1\n      Format profile : Layer 3\n      Codec ID : 55\n      Codec ID/Hint : MP3\n      Duration : 1h 30mn\n      Bit rate mode : Constant\n      Bit rate : 32.0 Kbps\n      Channel(s) : 2 channels\n      Sampling rate : 44.1 KHz\n      Resolution : 16 bits\n      Stream size : 75.8 MiB (10%)\n      Alignment : Aligned on interleaves\n      Interleave, duration : 26 ms (0.78 video frame)\n      Interleave, preload duration : 141 ms\n      Writing library : LAME3.98.2\n","torrent":{"xt":"urn:btih:8fe088c44033c3ea074f0af4db03e64b2d639972","amp;dn":"Four+Faces+West+1948.avi","amp;tr":["udp%3A%2F%2Ftracker.openbittorrent.com%3A80","udp%3A%2F%2Fopen.demonii.com%3A1337","udp%3A%2F%2Ftracker.coppersurfer.tk%3A6969","udp%3A%2F%2Fexodus.desync.com%3A6969"],"infoHash":"8fe088c44033c3ea074f0af4db03e64b2d639972","infoHashBuffer":{"type":"Buffer","data":[143,224,136,196,64,51,195,234,7,79,10,244,219,3,230,75,45,99,153,114]},"announce":[],"urlList":[]}}